<?xml version="1.0" encoding="UTF-8"?>
<svg width="24" height="24" version="1.1" viewBox="0 0 6.3502 6.3502" xml:space="preserve" xmlns="http://www.w3.org/2000/svg"><path d="m1.9643 0c-0.065415 0.021764-0.075516 0.10588-0.092503 0.16278-0.083655 0.28027-0.15824 0.56744-0.15038 0.86405 0.010735 0.40369 0.18066 0.82484 0.52815 1.0485 0.13907 0.089524 0.29776 0.14837 0.46097 0.17364 0.012403 0.12462 0.013759 0.25153 0 0.3757-0.11811 0.1419-0.25685 0.26686-0.3788 0.40619-0.24866 0.28411-0.49115 0.57421-0.70488 0.88576-0.0095959-0.06377-0.04293-0.13024 0.0036175-0.18707 0.097923-0.2265 0.1502-0.48161 0.095604-0.72711-0.077861-0.35009-0.33822-0.62676-0.6346-0.81134-0.24741-0.15406-0.51432-0.2801-0.7948-0.35968-0.049952-0.016256-0.077849 0.034204-0.087335 0.077-0.090744 0.40937-0.11933 0.85273 0.035658 1.2491 0.12136 0.31033 0.34101 0.60779 0.66044 0.72917 0.11945 0.045389 0.2471 0.072493 0.37311 0.088886 0.053035 0.077636 0.055521 0.17951 0.079067 0.26872 0.027298 0.060334-7.062e-4 0.10836-0.032557 0.16175-0.30498 0.51123-0.54845 1.0601-0.72814 1.6278-0.027087 0.085591-0.067134 0.20336 0.01757 0.27131 0.07314 0.063509 0.19722 0.061509 0.26097-0.015503 0.069451-0.079473 0.086014-0.19052 0.11938-0.28784 0.18352-0.53537 0.40836-1.057 0.69662-1.5441 0.032101-0.051739 0.10663-0.052484 0.1571-0.077516 0.097966-0.024271 0.19935-0.082698 0.30231-0.060463 0.25979 0.10302 0.49961 0.25062 0.73951 0.39275 0.062753 0.03856 0.12444 0.078691 0.18552 0.11989-0.37144-0.12766-0.72818-0.29441-1.0976-0.42686-0.042128-0.015394-0.030756 0.051086-0.029973 0.073899 0.051704 0.49496 0.43436 0.92522 0.91418 1.0584 0.36882 0.10234 0.7598 0.088108 1.1292 0.010852 0.056317-0.01178 0.1373-0.017257 0.16485-0.077-6.656e-4 -0.10054-0.048587-0.19591-0.079067-0.29043-0.10338-0.32054-0.26769-0.6251-0.4899-0.87955-0.23893-0.27363-0.6159-0.41871-0.97671-0.3819-0.17964 0.018328-0.34311 0.10073-0.50024 0.18397-0.065828 0.025512-0.1395 0.047826-0.20878 0.04806 0.2175-0.32766 0.46071-0.6408 0.72762-0.9302 0.1117-0.12111 0.22797-0.23835 0.34831-0.35089 0.16564 0.0014438 0.33312-0.012703 0.49766 0.004651 0.16557 0.064272 0.31034 0.17341 0.45941 0.26872 0.06287 0.04734 0.14048 0.090374 0.19276 0.14521-0.2813-0.074565-0.54973-0.19445-0.81237-0.31937-0.022355-0.014996-0.070741-0.025967-0.066148 0.016537 0.0084377 0.49857 0.36651 0.96393 0.8408 1.1126 0.40482 0.13266 0.84601 0.11022 1.2568 0.017054 0.04419-0.010397 0.11885-0.031221 0.10336-0.091986-0.04989-0.23965-0.14386-0.46961-0.25942-0.68473-0.16242-0.3024-0.40645-0.58187-0.73227-0.71109-0.20031-0.07945-0.41958-0.11353-0.63409-0.073382-0.11639 0.021788-0.22317 0.071665-0.33487 0.10542-0.079783 0.00694-0.16558-0.002572-0.24185-0.0056846 0.225-0.18772 0.46778-0.35454 0.71315-0.51471 0.048526-0.020715 0.093763-0.088262 0.14728-0.04496 0.25697 0.1223 0.55145 0.17004 0.83253 0.10904 0.34069-0.073923 0.64257-0.28432 0.84596-0.56432 0.22921-0.31557 0.34716-0.69621 0.42479-1.0739 0.010636-0.037927 0.0028097-0.08774-0.043926-0.093537-0.0081278-0.0027652-0.016497-0.0045829-0.024805-0.0067181-0.32588-0.056963-0.66234-0.043007-0.98756 0.011369-0.4051 0.067736-0.816 0.2526-1.0537 0.60205-0.1315 0.19331-0.18286 0.42821-0.19948 0.65786-0.2769 0.20048-0.56324 0.38875-0.82891 0.60463-0.0073578 0.0082337-0.026342 0.018976-0.035658 0.014986h-5.168e-4l-0.0010336-0.0010336h-5.168e-4l-5.167e-4 -5.167e-4c-1.458e-4 -1.909e-4 -9.004e-4 -0.0013414-0.0010336-0.0015504-0.0014401-0.0027306-0.001935-0.0071272-0.0010335-0.012919 0.0062251-0.098092 0.02644-0.19385 0.077-0.28113 0.18199-0.31416 0.19055-0.71757 0.034624-1.0465-0.19557-0.41251-0.56166-0.72365-0.96276-0.92606-0.068711-0.034674-0.13808-0.083768-0.21705-0.086819zm3.3472 1.047c0.045043 0.0062907 0.062878 0.071303 0.016537 0.090436-0.33596 0.22856-0.69157 0.42747-1.0263 0.65837-0.10785 0.074397-0.20816 0.16066-0.32092 0.22687-0.05235 0.018418-0.10522-0.04033-0.087335-0.092503-0.0072986-0.086875 0.07684-0.13386 0.1385-0.17467 0.33512-0.22177 0.69029-0.41218 1.0434-0.6036 0.074186-0.040215 0.15162-0.093989 0.23617-0.10491zm-2.8836 0.043409 5.168e-4 5.167e-4h5.168e-4c0.10165 0.14832 0.1817 0.31219 0.26046 0.47388 0.074275 0.15249 0.14852 0.30764 0.19638 0.47078 0.0097713 0.084695-0.011079 0.17334-0.029456 0.25425-0.058796-0.073281-0.082601-0.17096-0.11989-0.25684-0.11327-0.30985-0.22501-0.62238-0.30955-0.94105v-5.168e-4h5.168e-4v-5.168e-4l5.167e-4 -5.167e-4zm-1.5576 1.7632 0.0031007 0.0036174c0.2042 0.28266 0.41177 0.56721 0.56019 0.88421 0.022424 0.085464 0.02732 0.1862 0.029456 0.26872-0.16563-0.18933-0.25385-0.42985-0.36123-0.65372-0.079736-0.16626-0.16005-0.33313-0.23152-0.50282zm3.5652 0.45063c0.0024957-2.521e-4 0.0051875 0 0.0077517 0h0.3111c0.041025 0 0.073899 0.032872 0.073899 0.073899v0.3111c0 0.041029-0.032872 0.073899-0.073899 0.073899h-0.3111c-0.041028 0-0.073899-0.032872-0.073899-0.073899v-0.3111c0-0.038464 0.028712-0.070118 0.066147-0.073899z" fill="#098"/></svg>
