<?xml version="1.0" encoding="UTF-8"?>
<svg width="64" height="64" version="1.1" viewBox="0 0 16.934 16.934" xml:space="preserve" xmlns="http://www.w3.org/2000/svg"><path d="m14.247 0.52934c-0.46982 3.09e-4 -1.4652 0.32156-2.0408 0.6589-0.20007 0.11726-0.38831 0.21343-0.41859 0.21343-0.03029 0-0.0553-0.095981-0.0553-0.21343 0-0.11745-0.04168-0.26007-0.09302-0.31679-0.08924-0.098601-0.10625-0.098081-0.38655 0.0124-0.39378 0.15522-0.86727 0.47612-1.3002 0.88111l-0.35761 0.33436-0.08423-0.30542c-0.06652-0.23991-0.11278-0.30897-0.2155-0.32402-0.27143-0.03978-0.86812 0.30559-1.4754 0.85424-0.24598 0.22223-0.74055 0.88312-0.74055 0.98963 0 0.03593-0.02337 0.065631-0.05168 0.065631-0.0283 0-0.069041-0.14346-0.090951-0.31885-0.030421-0.2435-0.074732-0.34624-0.18708-0.43461-0.13587-0.10688-0.16282-0.10959-0.35089-0.03101-0.40578 0.16954-1.0076 0.75021-1.324 1.2775-0.24074 0.40123-0.321 0.6608-0.3726 1.2046l-0.03669 0.38914-0.26304-0.33022c-0.14461-0.18173-0.30869-0.33905-0.36485-0.34986-0.13051-0.02513-0.41625 0.27866-0.59688 0.63512-0.39436 0.77823-0.49233 1.9094-0.23514 2.711 0.03767 0.11737 8.55e-4 0.10748-0.41911-0.11473-0.40521-0.2144-0.47786-0.23564-0.60825-0.17622-0.12153 0.055381-0.16522 0.1408-0.24134 0.47544-0.24163 1.0624 0.01153 2.428 0.62375 3.3668 0.2435 0.3734 0.83577 0.98686 1.1431 1.1839l0.14367 0.09199-0.15813 0.86664c-0.33797 1.8548-0.33736 2.3069 0.0036 2.4919 0.24228 0.1315 0.49592 0.11232 0.64804-0.04961 0.072511-0.07719 0.25832-0.4548 0.41291-0.83925 0.30108-0.74877 0.64516-1.3472 0.77517-1.3472 0.04396 0 0.257 0.08017 0.47337 0.17829 0.66062 0.29955 1.0635 0.40174 1.587 0.40257 0.45688 7.28e-4 0.48446-0.0063 0.54727-0.14418 0.05383-0.11816 0.04854-0.16491-0.02997-0.25167-0.05306-0.05863-0.096641-0.12047-0.096641-0.13695v-1e-3h5.16e-4v-5.17e-4l5.17e-4 -5.17e-4h5.17e-4c0.0202-0.01113 0.18875 0.0089 0.3912 0.04806 0.21594 0.04179 0.6573 0.07735 0.98085 0.07855 1.1732 0.0043 1.7607-0.2338 1.4434-0.58448-0.04979-0.05504-0.08323-0.10755-0.08062-0.12506 6.8e-5 -2.86e-4 4.26e-4 -0.0013 5.17e-4 -0.0016 1.13e-4 -2.41e-4 3.81e-4 -0.0013 5.17e-4 -0.0015l5.16e-4 -5.17e-4 5.17e-4 -5.16e-4 5.17e-4 -5.17e-4c0.01313-0.0096 0.21883-0.0626 0.45683-0.11783 0.94918-0.2203 1.9721-0.96303 1.6857-1.2237-0.04566-0.04158-0.19426-0.10672-0.33022-0.14522-0.13597-0.03852-0.24702-0.09113-0.24702-0.11679 0-0.02558 0.10998-0.08276 0.24444-0.12713 0.47716-0.15748 1.1841-0.79686 1.571-1.4211 0.20599-0.33239 0.4048-0.896 0.36278-1.0284-0.0486-0.15312-0.2576-0.22222-0.66975-0.22222-0.37434 0-0.43042-0.0514-0.19431-0.17777 0.23944-0.12815 0.7339-0.69634 0.93486-1.0749 0.36828-0.69374 0.53593-1.465 0.3571-1.6439-0.03971-0.03971-0.23002-0.070281-0.44133-0.070281h-0.37156l0.19999-0.276c0.39624-0.54786 0.86044-1.8223 0.76897-2.1105-0.05795-0.18259-0.25405-0.20593-0.6775-0.080621-0.07718 0.02284-0.05716-0.06135 0.09871-0.42428 0.107-0.24914 0.23786-0.66973 0.29095-0.93486 0.12377-0.61806 0.1007-1.4331-0.04703-1.6583-0.09519-0.14514-0.13342-0.15733-0.49456-0.1571z" fill="#098"/><path d="m9.8688 8.5509h1.417c0.19982 0 0.36066 0.16084 0.36066 0.36066v1.417c0 0.19982-0.16084 0.36066-0.36066 0.36066h-1.417c-0.19982 0-0.36066-0.16084-0.36066-0.36066v-1.417c0-0.19982 0.16084-0.36066 0.36066-0.36066z" fill="#fff"/><path d="m12.954 2.7065c0 0.01234-0.21564 0.21175-0.47957 0.4434-1.379 1.2103-3.6806 3.5446-3.541 3.5911 0.02804 0.0093 0.20209-0.04997 0.38707-0.13178 0.68392-0.30246 3.1021-0.9733 3.018-0.83718-0.01702 0.02753-0.05599 0.05013-0.0863 0.05013-0.03032 0-0.29704 0.093371-0.59275 0.20723-2.2545 0.868-2.8844 1.1914-3.5472 1.8222-0.6533 0.6217-1.1683 1.3853-1.8186 2.696-0.27153 0.54729-0.48198 1.0067-0.46769 1.0212h5.17e-4l5.16e-4 5.16e-4h5.17e-4c0.02823 0.0077 0.27719-0.0773 0.56536-0.19431 0.61446-0.2495 1.0706-0.39679 1.617-0.52195 0.20795-0.04761 0.43902-0.10054 0.51368-0.11783 0.06392-0.01481 0.09681-0.01205 0.10491 0 4.85e-4 8.7e-4 0.0013 0.0027 0.0015 0.0036 0.0045 0.02621-0.07376 0.08176-0.19483 0.11214-0.24793 0.06222-1.8105 0.86136-2.2284 1.1395-0.64549 0.42967-1.2287 1.1058-1.6914 1.9607-0.29879 0.55201-0.34449 0.49037-0.20465-0.27648 0.20985-1.1507 0.73551-2.5176 1.4098-3.6671l0.28836-0.49196-0.078031-0.31989c-0.05841-0.23899-0.0707-0.62133-0.04754-1.5121 0.03177-1.2217 0.077561-1.8035 0.1416-1.8025 0.01992 3.1e-4 0.04193 0.35988 0.04858 0.79946 0.01135 0.75082 0.14326 1.846 0.26046 2.1622 0.04971 0.13411 0.06532 0.12087 0.32092-0.26201 0.39563-0.59264 0.8981-1.197 1.5715-1.8909l0.5974-0.61549 0.057881-0.693c0.04642-0.55625 0.13618-1.2593 0.24392-1.91 0.0058-0.03478 0.02517 0.41257 0.04341 0.99377 0.01824 0.5812 0.05369 1.0769 0.07855 1.1018l5.17e-4 5.17e-4c2.33e-4 1.54e-4 0.0013 9e-4 0.0015 1e-3 0.03354 0.01416 0.2123-0.1232 0.40516-0.31369 0.34119-0.33701 1.2508-1.0544 2.6738-2.1079 0.34391-0.25462 0.6253-0.45261 0.6253-0.4403z" fill="#fff"/></svg>
