<?xml version="1.0" encoding="UTF-8"?>
<svg width="64" height="64" version="1.1" viewBox="0 0 16.934 16.934" xml:space="preserve" xmlns="http://www.w3.org/2000/svg"><path d="m14.828 1.115c-0.46728-0.048802-1.4908 0.16664-2.0985 0.44197-0.21123 0.095705-0.40849 0.17167-0.43861 0.16851-0.03012-0.00317-0.04497-0.10124-0.03269-0.21804 0.01228-0.11681-0.01427-0.263-0.0594-0.32478-0.07844-0.10739-0.09542-0.10865-0.38573-0.028073-0.40785 0.11321-0.91229 0.38286-1.3852 0.74038l-0.3906 0.29515-0.051844-0.31255c-0.041078-0.24555-0.079866-0.31907-0.18045-0.34477-0.26578-0.067934-0.89531 0.21317-1.5566 0.69534-0.26786 0.1953-0.8288 0.80087-0.83994 0.9068-0.0037557 0.035733-0.030102 0.062829-0.058257 0.059869-0.028145-0.0029581-0.053667-0.14989-0.057124-0.32661-0.0048017-0.24535-0.038131-0.35215-0.14063-0.45178-0.12395-0.1205-0.15047-0.12601-0.34573-0.067518-0.42128 0.1262-1.0805 0.64078-1.4503 1.1321-0.28136 0.37387-0.38831 0.62363-0.49647 1.1591l-0.077165 0.38317-0.22708-0.35591c-0.12482-0.19585-0.27156-0.36946-0.32628-0.38608-0.12717-0.038634-0.4431 0.23362-0.66 0.56925-0.47355 0.73274-0.68922 1.8475-0.51723 2.6716 0.025195 0.12066-0.010384 0.10698-0.40482-0.15791-0.38058-0.25558-0.45061-0.2843-0.5865-0.23883-0.12665 0.042374-0.17903 0.12276-0.28971 0.44761-0.35136 1.0313-0.24233 2.4159 0.26841 3.4136 0.20314 0.39681 0.72804 1.0688 1.0131 1.2969l0.13327 0.1065-0.24785 0.84536c-0.53 1.8093-0.57665 2.259-0.25689 2.4786 0.22721 0.1561 0.48146 0.16354 0.64968 0.0184 0.080182-0.06919 0.30444-0.42531 0.49837-0.79149 0.3777-0.7132 0.78245-1.2724 0.91174-1.2588 0.043719 0.0046 0.24721 0.1066 0.45214 0.22679 0.62569 0.36696 1.0157 0.5107 1.5362 0.56625 0.4543 0.04848 0.48246 0.04438 0.55934-0.08618 0.065886-0.11189 0.065512-0.15893-0.0035-0.25342-0.046641-0.06386-0.083519-0.12991-0.081796-0.1463l1.045e-4 -9.94e-4 5.132e-4 5.3e-5 5.4e-5 -5.14e-4 5.682e-4 -4.6e-4 5.142e-4 5.4e-5c0.021253-9e-3 0.18679 0.02858 0.38403 0.08869 0.21039 0.06413 0.64561 0.14563 0.96727 0.18065 1.1663 0.12691 1.7755-0.04848 1.4966-0.4304-0.04376-0.05994-0.07153-0.11566-0.06711-0.1328 9.8e-5 -2.77e-4 5.6e-4 -0.0012 6.81e-4 -0.0015 1.38e-4 -2.28e-4 5.15e-4 -0.0013 6.71e-4 -0.0014l5.68e-4 -4.6e-4 5.68e-4 -4.59e-4 5.68e-4 -4.6e-4c0.01406-0.0082 0.22417-0.03938 0.46664-0.06943 0.96701-0.11988 2.062-0.75161 1.8044-1.0408-0.04106-0.04612-0.18204-0.12644-0.31323-0.17894-0.1312-0.05252-0.23614-0.11645-0.23346-0.14197 0.0027-0.02544 0.11803-0.07081 0.25639-0.10088 0.49101-0.10674 1.2609-0.66872 1.7109-1.2491 0.2396-0.30904 0.49624-0.84878 0.46829-0.98485-0.03233-0.15736-0.23296-0.24793-0.64285-0.29101-0.37229-0.039129-0.42269-0.09611-0.17466-0.19711 0.25152-0.10242 0.80267-0.61581 1.0421-0.97129 0.43878-0.65144 0.68613-1.401 0.52698-1.5976-0.03534-0.043643-0.22141-0.09394-0.43157-0.11603l-0.36952-0.038923 0.22774-0.25358c0.45134-0.50344 1.0462-1.7224 0.98536-2.0186-0.038547-0.18765-0.23113-0.23136-0.66536-0.151-0.07914 0.014647-0.05043-0.066989 0.14252-0.41164 0.13246-0.23659 0.30656-0.6412 0.38708-0.89933 0.1877-0.60174 0.24995-1.4147 0.12657-1.6541-0.0795-0.1543-0.11624-0.17041-0.47543-0.20794z" fill="#009f9b"/><g transform="translate(-.21701 -.061957)" fill="#fff"><g fill="#fff"><path d="m13.532 3.2071c-0.0013 0.012272-0.23659 0.18805-0.52329 0.39084-1.498 1.0595-4.0309 3.1405-3.897 3.2013 0.026914 0.01218 0.20621-0.028572 0.39872-0.090598 0.71179-0.22931 3.1868-0.64371 3.089-0.51713-0.01981 0.0256-0.06092 0.044003-0.09107 0.040835-0.03015-0.00317-0.30517 0.06181-0.61116 0.14414-2.3329 0.62758-2.9931 0.88337-3.7182 1.4414-0.71471 0.55001-1.3067 1.2556-2.0904 2.4911-0.32725 0.51591-0.58457 0.9508-0.57187 0.96672l5.141e-4 5.5e-5 4.593e-4 5.67e-4 5.141e-4 5.4e-5c0.027271 0.01061 0.28375-0.0479 0.58257-0.13415 0.63717-0.1839 1.1062-0.28271 1.6627-0.35007 0.21179-0.02561 0.44712-0.0541 0.52318-0.06349 0.065118-8e-3 0.097539-0.0019 0.10434 0.01097 3.914e-4 9.16e-4 0.00101 0.0028 0.00112 0.0037 0.00174 0.02654-0.081902 0.0736-0.20548 0.09116-0.25308 0.03596-1.8906 0.66739-2.3353 0.90033-0.68687 0.35984-1.3376 0.97131-1.8871 1.7732-0.35485 0.51775-0.39386 0.45168-0.17463-0.29636 0.32898-1.1225 0.99464-2.4269 1.7854-3.4996l0.3382-0.45909-0.044166-0.32629c-0.033109-0.24379-0.005366-0.62532 0.11078-1.5088 0.1593-1.2117 0.26565-1.7855 0.32924-1.7778 0.019778 0.00239 0.00408 0.36229-0.035252 0.80016-0.067195 0.74789-0.050485 1.8509 0.033021 2.1776 0.035419 0.13857 0.052328 0.12704 0.34655-0.22703 0.45541-0.54804 1.0183-1.0966 1.7605-1.7163l0.65846-0.54967 0.13-0.68315c0.10431-0.54835 0.26707-1.2382 0.44223-1.874 0.0094-0.033983-0.018093 0.41294-0.060705 0.99286s-0.059171 1.0766-0.03705 1.104l4.601e-4 5.682e-4c2.156e-4 1.775e-4 0.0012 0.00103 0.00139 0.00115 0.031876 0.017588 0.22401-0.10033 0.43573-0.26962 0.37455-0.2995 1.3542-0.91788 2.8795-1.8169 0.36864-0.21728 0.66918-0.38477 0.6679-0.37253z"/><path d="m9.8688 8.5509h1.417c0.19982 0 0.36066 0.16084 0.36066 0.36066v1.417c0 0.19982-0.16084 0.36066-0.36066 0.36066h-1.417c-0.19982 0-0.36066-0.16084-0.36066-0.36066v-1.417c0-0.19982 0.16084-0.36066 0.36066-0.36066z"/></g></g></svg>
